# xmcd
#
# Track frame offsets:
#	150
#	14370
#	26965
#	40770
#	51745
#	65802
#	78200
#	90700
#	113652
#	129295
#	171522
#	184162
#	204067
#	229387
#
# Disc length: 3331
#
# Revision: 3
# Processed by: cddbd v1.5.1PL0 Copyright (c) Steve Scherf et al.
# Submitted via: ExactAudioCopy v0.95a5
# Normalized: r2:DSETVAR1
#
DISCID=c00d010e
DTITLE=Various Artist - Pointblank Doggone Blues Sampler
DYEAR=1994
DGENRE=Blues
TTITLE0=John Lee Hooker - Boogie Chillen
TTITLE1=Hadda Brooks - I Feel So Good
TTITLE2=B. B. King - You Upset Me Baby
TTITLE3=Elmore James - Can't Stop Lovin'
TTITLE4=Lowell Fulsom - Tramp
TTITLE5=Etta James - W-O-M-A-N
TTITLE6=Johnny "Guitar" Watson - I Love To Love You
TTITLE7=John Hammond - Fool's Paradise
TTITLE8=Johnny Winter - Johnny Guitar
TTITLE9=Albert Collins - If Trouble Was Money
TTITLE10=Duke Robillard - When My Love Comes Down
TTITLE11=Pops Staples - Father Father
TTITLE12=Terry Evans - Get Your Lies Straight
TTITLE13=John Lee Hooker - Boogie At Russian Hill
EXTD=
EXTT0=John Lee Hooker
EXTT1=Hadda Brooks
EXTT2=B.B. King
EXTT3=Elmore James\n
EXTT4=Lowell Fulsom
EXTT5=Etta James
EXTT6=Johnny "Guitar" Watson
EXTT7=John Hammond
EXTT8=Johnny Winter
EXTT9=Albert Collins
EXTT10=Duke Robillard
EXTT11=Pop Staples
EXTT12=Terry Evans
EXTT13=John Lee Hooker
PLAYORDER=
